<?plantuml 1.2026.2?><svg xmlns="http://www.w3.org/2000/svg" xmlns:xlink="http://www.w3.org/1999/xlink" contentStyleType="text/css" data-diagram-type="CLASS" height="747px" preserveAspectRatio="none" style="width:1524px;height:747px;background:#FFFFFF;" version="1.1" viewBox="0 0 1524 747" width="1524px" zoomAndPan="magnify"><title>legacy master schema ER review diff</title><defs/><g><g class="title" data-source-line="2"><text fill="#000000" font-family="sans-serif" font-size="14" font-weight="bold" lengthAdjust="spacing" textLength="264.6533" x="622.7783" y="23.5352">legacy master schema ER review diff</text></g><!--cluster DropLegacyTables--><g class="cluster" data-qualified-name="DropLegacyTables" data-source-line="39" id="ent0002"><rect fill="none" height="148.59" rx="2.5" ry="2.5" style="stroke:#000000;stroke-width:1.5;" width="1191" x="327.21" y="44.4883"/><text fill="#000000" font-family="sans-serif" font-size="14" font-weight="bold" lengthAdjust="spacing" textLength="190.8115" x="827.3042" y="60.0234">drop: legacy master tables</text></g><!--cluster KeepCanonicalTables--><g class="cluster" data-qualified-name="KeepCanonicalTables" data-source-line="58" id="ent0007"><rect fill="none" height="165.58" rx="2.5" ry="2.5" style="stroke:#000000;stroke-width:1.5;" width="554" x="360.21" y="266.0783"/><text fill="#000000" font-family="sans-serif" font-size="14" font-weight="bold" lengthAdjust="spacing" textLength="242.498" x="515.961" y="281.6134">keep: canonical foundation tables</text></g><!--cluster AddSettingsTable--><g class="cluster" data-qualified-name="AddSettingsTable" data-source-line="73" id="ent0010"><rect fill="none" height="181.58" rx="2.5" ry="2.5" style="stroke:#000000;stroke-width:1.5;" width="374" x="960.21" y="258.0783"/><text fill="#000000" font-family="sans-serif" font-size="14" font-weight="bold" lengthAdjust="spacing" textLength="133.7725" x="1080.3238" y="273.6134">add: settings table</text></g><!--class LegacyDictionary--><g class="entity" data-qualified-name="DropLegacyTables.LegacyDictionary" data-source-line="40" id="ent0003"><rect fill="#FFF1F1" height="65.1094" rx="2.5" ry="2.5" style="stroke:#C62828;stroke-width:0.5;" width="206.5146" x="415.95" y="95.7283"/><ellipse cx="430.95" cy="116.0388" fill="#ADD1B2" rx="11" ry="11" style="stroke:#181818;stroke-width:1;"/><path d="M433.4231,122.1819 Q432.8421,122.4807 432.2029,122.6301 Q431.5638,122.7796 430.8582,122.7796 Q428.3514,122.7796 427.0315,121.1277 Q425.7117,119.4758 425.7117,116.3547 Q425.7117,113.2254 427.0315,111.5735 Q428.3514,109.9216 430.8582,109.9216 Q431.5638,109.9216 432.2112,110.0711 Q432.8587,110.2205 433.4231,110.5193 L433.4231,113.242 Q432.7923,112.6609 432.1988,112.3911 Q431.6053,112.1213 430.9744,112.1213 Q429.6297,112.1213 428.9449,113.188 Q428.2601,114.2546 428.2601,116.3547 Q428.2601,118.4465 428.9449,119.5132 Q429.6297,120.5798 430.9744,120.5798 Q431.6053,120.5798 432.1988,120.3101 Q432.7923,120.0403 433.4231,119.4592 Z " fill="#000000"/><text fill="#000000" font-family="sans-serif" font-size="12" font-style="italic" lengthAdjust="spacing" textLength="63.1934" x="500.6106" y="112.3298">&#171;removed&#187;</text><text fill="#7F1D1D" font-family="sans-serif" font-size="14" lengthAdjust="spacing" textLength="174.5146" x="444.95" y="128.3963">master_dictionary_entries</text><line style="stroke:#C62828;stroke-width:0.5;" x1="416.95" x2="621.4646" y1="136.3494" y2="136.3494"/><text fill="#000000" font-family="sans-serif" font-size="14" lengthAdjust="spacing" textLength="174.5146" x="421.95" y="153.8845">master_dictionary_entries</text></g><!--class LegacyPersona--><g class="entity" data-qualified-name="DropLegacyTables.LegacyPersona" data-source-line="44" id="ent0004"><rect fill="#FFF1F1" height="65.1094" rx="2.5" ry="2.5" style="stroke:#C62828;stroke-width:0.5;" width="193.6357" x="702.39" y="95.7283"/><ellipse cx="717.39" cy="116.0388" fill="#ADD1B2" rx="11" ry="11" style="stroke:#181818;stroke-width:1;"/><path d="M719.8631,122.1819 Q719.2821,122.4807 718.6429,122.6301 Q718.0038,122.7796 717.2982,122.7796 Q714.7914,122.7796 713.4715,121.1277 Q712.1517,119.4758 712.1517,116.3547 Q712.1517,113.2254 713.4715,111.5735 Q714.7914,109.9216 717.2982,109.9216 Q718.0038,109.9216 718.6512,110.0711 Q719.2987,110.2205 719.8631,110.5193 L719.8631,113.242 Q719.2323,112.6609 718.6388,112.3911 Q718.0453,112.1213 717.4144,112.1213 Q716.0697,112.1213 715.3849,113.188 Q714.7001,114.2546 714.7001,116.3547 Q714.7001,118.4465 715.3849,119.5132 Q716.0697,120.5798 717.4144,120.5798 Q718.0453,120.5798 718.6388,120.3101 Q719.2323,120.0403 719.8631,119.4592 Z " fill="#000000"/><text fill="#000000" font-family="sans-serif" font-size="12" font-style="italic" lengthAdjust="spacing" textLength="63.1934" x="780.6112" y="112.3298">&#171;removed&#187;</text><text fill="#7F1D1D" font-family="sans-serif" font-size="14" lengthAdjust="spacing" textLength="161.6357" x="731.39" y="128.3963">master_persona_entries</text><line style="stroke:#C62828;stroke-width:0.5;" x1="703.39" x2="895.0257" y1="136.3494" y2="136.3494"/><text fill="#000000" font-family="sans-serif" font-size="14" lengthAdjust="spacing" textLength="161.6357" x="708.39" y="153.8845">master_persona_entries</text></g><!--class LegacyAISettings--><g class="entity" data-qualified-name="DropLegacyTables.LegacyAISettings" data-source-line="48" id="ent0005"><rect fill="#FFF1F1" height="65.1094" rx="2.5" ry="2.5" style="stroke:#C62828;stroke-width:0.5;" width="219.9883" x="976.22" y="95.7283"/><ellipse cx="991.22" cy="116.0388" fill="#ADD1B2" rx="11" ry="11" style="stroke:#181818;stroke-width:1;"/><path d="M993.6931,122.1819 Q993.1121,122.4807 992.4729,122.6301 Q991.8338,122.7796 991.1282,122.7796 Q988.6214,122.7796 987.3015,121.1277 Q985.9817,119.4758 985.9817,116.3547 Q985.9817,113.2254 987.3015,111.5735 Q988.6214,109.9216 991.1282,109.9216 Q991.8338,109.9216 992.4812,110.0711 Q993.1287,110.2205 993.6931,110.5193 L993.6931,113.242 Q993.0623,112.6609 992.4688,112.3911 Q991.8753,112.1213 991.2444,112.1213 Q989.8997,112.1213 989.2149,113.188 Q988.5301,114.2546 988.5301,116.3547 Q988.5301,118.4465 989.2149,119.5132 Q989.8997,120.5798 991.2444,120.5798 Q991.8753,120.5798 992.4688,120.3101 Q993.0623,120.0403 993.6931,119.4592 Z " fill="#000000"/><text fill="#000000" font-family="sans-serif" font-size="12" font-style="italic" lengthAdjust="spacing" textLength="63.1934" x="1067.6175" y="112.3298">&#171;removed&#187;</text><text fill="#7F1D1D" font-family="sans-serif" font-size="14" lengthAdjust="spacing" textLength="187.9883" x="1005.22" y="128.3963">master_persona_ai_settings</text><line style="stroke:#C62828;stroke-width:0.5;" x1="977.22" x2="1195.2083" y1="136.3494" y2="136.3494"/><text fill="#000000" font-family="sans-serif" font-size="14" lengthAdjust="spacing" textLength="187.9883" x="982.22" y="153.8845">master_persona_ai_settings</text></g><!--class LegacyRunStatus--><g class="entity" data-qualified-name="DropLegacyTables.LegacyRunStatus" data-source-line="52" id="ent0006"><rect fill="#FFF1F1" height="81.5977" rx="2.5" ry="2.5" style="stroke:#C62828;stroke-width:0.5;" width="218.4707" x="1275.97" y="87.4883"/><ellipse cx="1290.97" cy="107.7988" fill="#ADD1B2" rx="11" ry="11" style="stroke:#181818;stroke-width:1;"/><path d="M1293.4431,113.9419 Q1292.8621,114.2407 1292.2229,114.3901 Q1291.5838,114.5396 1290.8782,114.5396 Q1288.3714,114.5396 1287.0515,112.8877 Q1285.7317,111.2358 1285.7317,108.1147 Q1285.7317,104.9854 1287.0515,103.3335 Q1288.3714,101.6816 1290.8782,101.6816 Q1291.5838,101.6816 1292.2312,101.8311 Q1292.8787,101.9805 1293.4431,102.2793 L1293.4431,105.002 Q1292.8123,104.4209 1292.2188,104.1511 Q1291.6253,103.8813 1290.9944,103.8813 Q1289.6497,103.8813 1288.9649,104.948 Q1288.2801,106.0146 1288.2801,108.1147 Q1288.2801,110.2065 1288.9649,111.2732 Q1289.6497,112.3398 1290.9944,112.3398 Q1291.6253,112.3398 1292.2188,112.0701 Q1292.8123,111.8003 1293.4431,111.2192 Z " fill="#000000"/><text fill="#000000" font-family="sans-serif" font-size="12" font-style="italic" lengthAdjust="spacing" textLength="63.1934" x="1366.6087" y="104.0898">&#171;removed&#187;</text><text fill="#7F1D1D" font-family="sans-serif" font-size="14" lengthAdjust="spacing" textLength="186.4707" x="1304.97" y="120.1563">master_persona_run_status</text><line style="stroke:#C62828;stroke-width:0.5;" x1="1276.97" x2="1493.4407" y1="128.1094" y2="128.1094"/><text fill="#000000" font-family="sans-serif" font-size="14" lengthAdjust="spacing" textLength="186.4707" x="1281.97" y="145.6445">master_persona_run_status</text><text fill="#000000" font-family="sans-serif" font-size="14" lengthAdjust="spacing" textLength="143.6572" x="1281.97" y="162.1328">no replacement table</text></g><!--class CanonicalDictionary--><g class="entity" data-qualified-name="KeepCanonicalTables.CanonicalDictionary" data-source-line="59" id="ent0008"><rect fill="#F7F9FC" height="114.5742" rx="2.5" ry="2.5" style="stroke:#546E7A;stroke-width:0.5;" width="276.2227" x="376.1" y="301.0783"/><ellipse cx="436.9398" cy="321.3888" fill="#ADD1B2" rx="11" ry="11" style="stroke:#181818;stroke-width:1;"/><path d="M439.413,327.5319 Q438.8319,327.8307 438.1928,327.9801 Q437.5536,328.1296 436.848,328.1296 Q434.3412,328.1296 433.0214,326.4777 Q431.7016,324.8258 431.7016,321.7047 Q431.7016,318.5754 433.0214,316.9235 Q434.3412,315.2716 436.848,315.2716 Q437.5536,315.2716 438.2011,315.4211 Q438.8485,315.5705 439.413,315.8693 L439.413,318.592 Q438.7821,318.0109 438.1886,317.7411 Q437.5951,317.4713 436.9643,317.4713 Q435.6195,317.4713 434.9347,318.538 Q434.2499,319.6046 434.2499,321.7047 Q434.2499,323.7965 434.9347,324.8632 Q435.6195,325.9298 436.9643,325.9298 Q437.5951,325.9298 438.1886,325.6601 Q438.7821,325.3903 439.413,324.8092 Z " fill="#000000"/><text fill="#000000" font-family="sans-serif" font-size="12" font-style="italic" lengthAdjust="spacing" textLength="59.0918" x="500.9154" y="317.6798">&#171;existing&#187;</text><text fill="#243447" font-family="sans-serif" font-size="14" lengthAdjust="spacing" textLength="146.043" x="457.4398" y="333.7463">dictionary foundation</text><line style="stroke:#546E7A;stroke-width:0.5;" x1="377.1" x2="651.3227" y1="341.6994" y2="341.6994"/><text fill="#000000" font-family="sans-serif" font-size="14" lengthAdjust="spacing" textLength="136.9033" x="382.1" y="359.2345">DICTIONARY_ENTRY</text><text fill="#000000" font-family="sans-serif" font-size="14" lengthAdjust="spacing" textLength="238.4785" x="382.1" y="375.7228">XTRANSLATOR_TRANSLATION_XML</text><text fill="#000000" font-family="sans-serif" font-size="14" lengthAdjust="spacing" textLength="264.2227" x="382.1" y="392.2111">dedupe key uses trimmed source_term</text><text fill="#000000" font-family="sans-serif" font-size="14" lengthAdjust="spacing" textLength="223.9248" x="382.1" y="408.6994">and translated_term exact match</text></g><!--class CanonicalPersona--><g class="entity" data-qualified-name="KeepCanonicalTables.CanonicalPersona" data-source-line="66" id="ent0009"><rect fill="#F7F9FC" height="98.0859" rx="2.5" ry="2.5" style="stroke:#546E7A;stroke-width:0.5;" width="165.1641" x="732.63" y="309.3283"/><ellipse cx="747.63" cy="329.6388" fill="#ADD1B2" rx="11" ry="11" style="stroke:#181818;stroke-width:1;"/><path d="M750.1031,335.7819 Q749.5221,336.0807 748.8829,336.2301 Q748.2438,336.3796 747.5382,336.3796 Q745.0314,336.3796 743.7115,334.7277 Q742.3917,333.0758 742.3917,329.9547 Q742.3917,326.8254 743.7115,325.1735 Q745.0314,323.5216 747.5382,323.5216 Q748.2438,323.5216 748.8912,323.6711 Q749.5387,323.8205 750.1031,324.1193 L750.1031,326.842 Q749.4723,326.2609 748.8788,325.9911 Q748.2853,325.7213 747.6544,325.7213 Q746.3097,325.7213 745.6249,326.788 Q744.9401,327.8546 744.9401,329.9547 Q744.9401,332.0465 745.6249,333.1132 Q746.3097,334.1798 747.6544,334.1798 Q748.2853,334.1798 748.8788,333.9101 Q749.4723,333.6403 750.1031,333.0592 Z " fill="#000000"/><text fill="#000000" font-family="sans-serif" font-size="12" font-style="italic" lengthAdjust="spacing" textLength="59.0918" x="798.6661" y="325.9298">&#171;existing&#187;</text><text fill="#243447" font-family="sans-serif" font-size="14" lengthAdjust="spacing" textLength="133.1641" x="761.63" y="341.9963">persona foundation</text><line style="stroke:#546E7A;stroke-width:0.5;" x1="733.63" x2="896.7941" y1="349.9494" y2="349.9494"/><text fill="#000000" font-family="sans-serif" font-size="14" lengthAdjust="spacing" textLength="62.5967" x="738.63" y="367.4845">PERSONA</text><text fill="#000000" font-family="sans-serif" font-size="14" lengthAdjust="spacing" textLength="88.8262" x="738.63" y="383.9728">NPC_PROFILE</text><text fill="#000000" font-family="sans-serif" font-size="14" lengthAdjust="spacing" textLength="91.1094" x="738.63" y="400.4611">NPC_RECORD</text></g><!--class PersonaGenerationSettings--><g class="entity" data-qualified-name="AddSettingsTable.PersonaGenerationSettings" data-source-line="74" id="ent0011"><rect fill="#EEF9EF" height="114.5742" rx="2.5" ry="2.5" style="stroke:#2E7D32;stroke-width:0.5;" width="261.7148" x="984.35" y="301.0783"/><ellipse cx="999.35" cy="321.3888" fill="#ADD1B2" rx="11" ry="11" style="stroke:#181818;stroke-width:1;"/><path d="M1001.8231,327.5319 Q1001.2421,327.8307 1000.6029,327.9801 Q999.9638,328.1296 999.2582,328.1296 Q996.7514,328.1296 995.4315,326.4777 Q994.1117,324.8258 994.1117,321.7047 Q994.1117,318.5754 995.4315,316.9235 Q996.7514,315.2716 999.2582,315.2716 Q999.9638,315.2716 1000.6112,315.4211 Q1001.2587,315.5705 1001.8231,315.8693 L1001.8231,318.592 Q1001.1923,318.0109 1000.5988,317.7411 Q1000.0053,317.4713 999.3744,317.4713 Q998.0297,317.4713 997.3449,318.538 Q996.6601,319.6046 996.6601,321.7047 Q996.6601,323.7965 997.3449,324.8632 Q998.0297,325.9298 999.3744,325.9298 Q1000.0053,325.9298 1000.5988,325.6601 Q1001.1923,325.3903 1001.8231,324.8092 Z " fill="#000000"/><text fill="#000000" font-family="sans-serif" font-size="12" font-style="italic" lengthAdjust="spacing" textLength="48.5449" x="1103.935" y="317.6798">&#171;added&#187;</text><text fill="#1B5E20" font-family="sans-serif" font-size="14" lengthAdjust="spacing" textLength="229.7148" x="1013.35" y="333.7463">PERSONA_GENERATION_SETTINGS</text><line style="stroke:#2E7D32;stroke-width:0.5;" x1="985.35" x2="1245.0648" y1="341.6994" y2="341.6994"/><text fill="#000000" font-family="sans-serif" font-size="14" lengthAdjust="spacing" textLength="229.7148" x="990.35" y="359.2345">PERSONA_GENERATION_SETTINGS</text><text fill="#000000" font-family="sans-serif" font-size="14" lengthAdjust="spacing" textLength="41.6992" x="990.35" y="375.7228">id = 1</text><text fill="#000000" font-family="sans-serif" font-size="14" lengthAdjust="spacing" textLength="56.7725" x="990.35" y="392.2111">provider</text><text fill="#000000" font-family="sans-serif" font-size="14" lengthAdjust="spacing" textLength="42.3281" x="990.35" y="408.6994">model</text></g><g class="entity" data-qualified-name="GMN15" data-source-line="87" id="ent0016"><path d="M6,338.0583 L6,378.6794 L296.4199,378.6794 L296.4199,348.0583 L286.4199,338.0583 L6,338.0583" fill="#FEFFDD" style="stroke:#181818;stroke-width:0.5;"/><path d="M286.4199,338.0583 L286.4199,348.0583 L296.4199,348.0583 L286.4199,338.0583" fill="#FEFFDD" style="stroke:#181818;stroke-width:1;"/><text fill="#000000" font-family="sans-serif" font-size="13" lengthAdjust="spacing" textLength="175.0366" x="12" y="355.6266">drop without legacy backfill</text><text fill="#000000" font-family="sans-serif" font-size="13" lengthAdjust="spacing" textLength="269.4199" x="12" y="370.9372">run status is dropped without replacement</text></g><g class="entity" data-qualified-name="GMN18" data-source-line="92" id="ent0019"><path d="M1142.78,509.6583 L1142.78,596.211 L1509.6447,596.211 L1509.6447,519.6583 L1499.6447,509.6583 L1142.78,509.6583" fill="#FEFFDD" style="stroke:#181818;stroke-width:0.5;"/><path d="M1499.6447,509.6583 L1499.6447,519.6583 L1509.6447,519.6583 L1499.6447,509.6583" fill="#FEFFDD" style="stroke:#181818;stroke-width:1;"/><text fill="#000000" font-family="sans-serif" font-size="13" lengthAdjust="spacing" textLength="345.8647" x="1148.78" y="527.2266">settings are outside PERSONA and DICTIONARY_ENTRY</text><text fill="#000000" font-family="sans-serif" font-size="13" lengthAdjust="spacing" textLength="190.0869" x="1148.78" y="542.5372">run state is in UI memory only</text><text fill="#000000" font-family="sans-serif" font-size="13" lengthAdjust="spacing" textLength="249.8057" x="1148.78" y="557.8477">restart returns to JSON unselected state</text><text fill="#000000" font-family="sans-serif" font-size="13" lengthAdjust="spacing" textLength="259.6953" x="1148.78" y="573.1583">JSON is selected manually before preview</text><text fill="#000000" font-family="sans-serif" font-size="13" lengthAdjust="spacing" textLength="240.0557" x="1148.78" y="588.4688">partial persona rows are not persisted</text></g><!--link LegacyDictionary to CanonicalDictionary--><g class="link" data-entity-1="ent0003" data-entity-2="ent0008" data-link-type="dependency" data-source-line="82" id="lnk12"><path codeLine="82" d="M505.03,161.1083 C498.5,177.4783 491.49,197.9583 488.21,217.0783 C483.48,244.6683 486.5059,269.4247 493.0259,294.9647" fill="none" id="LegacyDictionary-to-CanonicalDictionary" style="stroke:#C62828;stroke-width:1;stroke-dasharray:7,7;"/><polygon fill="#C62828" points="494.51,300.7783,496.1595,291.0685,493.2732,295.9337,488.4081,293.0474,494.51,300.7783" style="stroke:#C62828;stroke-width:1;"/><text fill="#000000" font-family="sans-serif" font-size="13" lengthAdjust="spacing" textLength="225.8813" x="489.21" y="230.6466">replace with canonical dictionary ER</text></g><!--link LegacyPersona to CanonicalPersona--><g class="link" data-entity-1="ent0004" data-entity-2="ent0009" data-link-type="dependency" data-source-line="83" id="lnk13"><path codeLine="83" d="M798.59,160.9583 C798.42,181.7683 798.61,209.5683 800.21,234.0783 C801.83,258.8283 804.2277,280.2708 807.2477,302.9408" fill="none" id="LegacyPersona-to-CanonicalPersona" style="stroke:#C62828;stroke-width:1;stroke-dasharray:7,7;"/><polygon fill="#C62828" points="808.04,308.8883,810.8165,299.4389,807.3798,303.9321,802.8866,300.4953,808.04,308.8883" style="stroke:#C62828;stroke-width:1;"/><text fill="#000000" font-family="sans-serif" font-size="13" lengthAdjust="spacing" textLength="213.9224" x="801.21" y="230.6466">replace with canonical persona ER</text></g><!--link LegacyAISettings to PersonaGenerationSettings--><g class="link" data-entity-1="ent0005" data-entity-2="ent0011" data-link-type="dependency" data-source-line="84" id="lnk14"><path codeLine="84" d="M1090.24,160.9983 C1094.83,197.1083 1101.663,250.8462 1107.273,294.9562" fill="none" id="LegacyAISettings-to-PersonaGenerationSettings" style="stroke:#2E7D32;stroke-width:1;stroke-dasharray:7,7;"/><polygon fill="#2E7D32" points="1108.03,300.9083,1110.8625,291.4755,1107.3992,295.9482,1102.9265,292.4849,1108.03,300.9083" style="stroke:#2E7D32;stroke-width:1;"/><text fill="#000000" font-family="sans-serif" font-size="13" lengthAdjust="spacing" textLength="135.186" x="1099.97" y="230.6466">replace settings table</text></g><!--link DropLegacyTables to GMN15--><g class="link" data-entity-1="ent0002" data-entity-2="ent0016" data-link-type="association" data-source-line="87" id="lnk17"><path d="M326.862,139.6351 C326.344,140.2772 325.8045,140.9459 325.2442,141.6405 C324.1235,143.0297 322.9195,144.5221 321.6381,146.1105 C319.0753,149.2873 316.2027,152.8481 313.0669,156.7352 C300.5237,172.2833 283.77,193.0508 265.79,215.3383 C229.83,259.9133 188.965,310.5683 167.07,337.7083" fill="none" id="DropLegacyTables-GMN15" style="stroke:#181818;stroke-width:1;stroke-dasharray:7,7;"/></g><!--link AddSettingsTable to GMN18--><g class="link" data-entity-1="ent0010" data-entity-2="ent0019" data-link-type="association" data-source-line="92" id="lnk20"><path d="M1326.21,440.2015 C1326.21,440.7075 1326.21,441.2141 1326.21,441.7213 C1326.21,442.7356 1326.21,443.752 1326.21,444.7701 C1326.21,446.8062 1326.21,448.8489 1326.21,450.8945 C1326.21,454.9857 1326.21,459.0883 1326.21,463.1728 C1326.21,479.5108 1326.21,495.5583 1326.21,509.4183" fill="none" id="AddSettingsTable-GMN18" style="stroke:#181818;stroke-width:1;stroke-dasharray:7,7;"/></g><g class="legend" data-source-line="30"><rect fill="#DDDDDD" height="112.9297" rx="7.5" ry="7.5" style="stroke:#000000;stroke-width:1;" width="349.0693" x="1149.1407" y="614.211"/><text fill="#000000" font-family="sans-serif" font-size="14" font-weight="bold" lengthAdjust="spacing" textLength="34.5898" x="1158.7549" y="634.7462">Style</text><text fill="#000000" font-family="sans-serif" font-size="14" font-weight="bold" lengthAdjust="spacing" textLength="61.3184" x="1226.67" y="634.7462">Meaning</text><rect fill="#F7F9FC" height="16.4883" style="stroke:none;stroke-width:1;" width="67.915" x="1154.1407" y="637.6993"/><text fill="#000000" font-family="sans-serif" font-size="14" lengthAdjust="spacing" textLength="54.2705" x="1158.5704" y="651.2345">existing</text><text fill="#000000" font-family="sans-serif" font-size="14" lengthAdjust="spacing" textLength="180.7354" x="1226.4854" y="651.2345">unchanged source of truth</text><rect fill="#EEF9EF" height="16.4883" style="stroke:none;stroke-width:1;" width="67.915" x="1154.1407" y="654.1876"/><text fill="#000000" font-family="sans-serif" font-size="14" lengthAdjust="spacing" textLength="41.9658" x="1158.5704" y="667.7227">added</text><text fill="#000000" font-family="sans-serif" font-size="14" lengthAdjust="spacing" textLength="177.0918" x="1226.4854" y="667.7227">new element or new route</text><rect fill="#FFF1F1" height="16.4883" style="stroke:none;stroke-width:1;" width="67.915" x="1154.1407" y="670.6759"/><text fill="#000000" font-family="sans-serif" font-size="14" lengthAdjust="spacing" textLength="59.0557" x="1158.5704" y="684.211">removed</text><text fill="#000000" font-family="sans-serif" font-size="14" lengthAdjust="spacing" textLength="177.5156" x="1226.4854" y="684.211">deleted or retired element</text><rect fill="#FFF8E1" height="16.4883" style="stroke:none;stroke-width:1;" width="67.915" x="1154.1407" y="687.1641"/><text fill="#000000" font-family="sans-serif" font-size="14" lengthAdjust="spacing" textLength="57.6201" x="1158.5704" y="700.6993">changed</text><text fill="#000000" font-family="sans-serif" font-size="14" lengthAdjust="spacing" textLength="235.3408" x="1226.4854" y="700.6993">behavior or responsibility changed</text><rect fill="#F4F7FA" height="16.4883" style="stroke:none;stroke-width:1;" width="67.915" x="1154.1407" y="703.6524"/><text fill="#000000" font-family="sans-serif" font-size="14" lengthAdjust="spacing" textLength="25.0947" x="1158.5704" y="717.1876">risk</text><text fill="#000000" font-family="sans-serif" font-size="14" lengthAdjust="spacing" textLength="262.2949" x="1226.4854" y="717.1876">review note, constraint, or split reason</text><line style="stroke:#000000;stroke-width:1;" x1="1154.1407" x2="1493.21" y1="621.211" y2="621.211"/><line style="stroke:#000000;stroke-width:1;" x1="1154.1407" x2="1493.21" y1="637.6993" y2="637.6993"/><line style="stroke:#000000;stroke-width:1;" x1="1154.1407" x2="1493.21" y1="654.1876" y2="654.1876"/><line style="stroke:#000000;stroke-width:1;" x1="1154.1407" x2="1493.21" y1="670.6759" y2="670.6759"/><line style="stroke:#000000;stroke-width:1;" x1="1154.1407" x2="1493.21" y1="687.1641" y2="687.1641"/><line style="stroke:#000000;stroke-width:1;" x1="1154.1407" x2="1493.21" y1="703.6524" y2="703.6524"/><line style="stroke:#000000;stroke-width:1;" x1="1154.1407" x2="1493.21" y1="720.1407" y2="720.1407"/><line style="stroke:#000000;stroke-width:1;" x1="1154.1407" x2="1154.1407" y1="621.211" y2="720.1407"/><line style="stroke:#000000;stroke-width:1;" x1="1222.0557" x2="1222.0557" y1="621.211" y2="720.1407"/><line style="stroke:#000000;stroke-width:1;" x1="1493.21" x2="1493.21" y1="621.211" y2="720.1407"/></g><?plantuml-src ZLPjR-8u4FwUNp7gVUrAXT92gouIXQJYhakhm4cxEfsGIGQmIEp8TjhZhllVR-Ayu4AwktmAzZFlpypOS9CW9BXXqHvIfWqgqD4MKmP-20fVEBv2pDThppCo0oDX9OsHAPqfZ0oNmjlo6255ivMnzlIEYumfbaAKCAr7nYY-oWrE8odc_5-42mSYP8mQCnYuXug9NN5uunvcBDgn3SxDdhmj33EnIT01w2sBvIiN6rYpHADtx0Zyvm7zxadFHibSn6EPI7LtX_zmRKXiE8JVWdvm4unBd5GngXRCLU_Qxuyi9f32j22wlSjUhzzkZSKnnWN8zuCRFpWrrG2wVdzosJssqrntxg_yxaMx4OMfV2bXGH1qWiwf6GSolkuEkeDZGmwW7tGcdKcxgMXBTMXC3VmMKoxaPZJeNXsRSW0z_xBNzJ-8YkkTLTAZCerQGghkho_way7zIJpLRIVetbnUUjyzZoYF8gxPhFXcQwpGssSeMKOVNv29Wb9lvSrTnP0XrFM6DyX55G1ecQi8GQx1gDni3r9biOTWgqSYWbeA4qnH693A_gL83JfsRDs6K9M1P68ICFH5U8M6UYzkLBXIL88Xr0wzmGgtx8MJZ1NJcHIQhtZ2pVu0QgHjOiacfOf4gzONqk0vKFDgenWNvhnGfJDIGGYcfI05bCSocvvNzIcSnKfcjqTpnR1LWleCc8O9NJ_QouKzhDgpRDMp4h-CkHqmJEsN5AVYbMmfDsakmQLhgQVuVQZ48eW1fmOpL1GHQx7sNDxysDIH-C_jCBxKQ0eYkRP6qtbr-6lc72q_DwboiTI6cTor6EPYRiz-pU11HuCGakYG9ImgAMahNJdptM753f5O4J4X1OzO0kkYmLbH7vSSVn1gN6FQ-76egQF1YZPYx-ZXZET3K9FfU35zcet2Rqj_jWY_DHTV5-5eDdySBPx2PVr9mENNBuyDXXevpn1sk8TSatjKy3HjPi2IifKsM4PZXff7w8HH1zix6Y0iCfHN4srRQbOb-iFW3cniZUpP3-SKMFD_zZnUFeTFmVJHVtSM-kEdSD9I9XfKjr1pggoCTM0KnpKrRLdULwKoktpmPtvOfcpkBnRJsSFSIbTUFw10PODoQ5uljfCWshGr61x3P-WqVpCbN-WjeWwyfVT5SeZlP71y-gjQV-SnqrkC__uqR6NGRKrkUEKqs0_yTOZeXzxxKV53vJNeGyqr1HgrpbGWpUNpmD7ySN8F9jvNrFEAsLulGDfQnpFP9gwOuzOtMb3rE5yHJzOyAJDBmm3AOG1SMtX6VL1BE4EXM1DsdPmOFgQLrTiuonJjrDpeufLPaSAsL6l_rjvWuGmNyEUKNgQffFf8aUnB21905QwPN0bTF6b_9wMqo3LjrAXOibQ31TiRKjLSfKpaB4ae2RYMv5bMxaaBfkUcuKxjb7mjtQTuxI7rAiQ7FFmF?></g></svg>